<?xml version="1.0" encoding="UTF-8" standalone="no"?>
<!-- Created with Inkscape (http://www.inkscape.org/) -->

<svg
   width="39.687504mm"
   height="42.119713mm"
   viewBox="0 0 39.687504 42.119713"
   version="1.1"
   id="svg5"
   xmlns="http://www.w3.org/2000/svg"
   xmlns:svg="http://www.w3.org/2000/svg">
  <defs
     id="defs2">
    <filter
       style="color-interpolation-filters:sRGB"
       id="filter3450"
       x="-0.036083834"
       y="-0.034577303"
       width="1.0721677"
       height="1.0691546">
      <feGaussianBlur
         stdDeviation="0.28683531"
         id="feGaussianBlur3452" />
    </filter>
  </defs>
  <g
     id="layer1"
     transform="translate(-66.569776,-29.978431)">
    <rect
       style="fill:#d5d5d5;fill-opacity:1;stroke:none;stroke-width:1.85072;stroke-linecap:round"
       id="rect24904"
       width="38.686378"
       height="28.37001"
       x="67.5709"
       y="43.728134" />
    <g
       aria-label="M"
       id="g3426"
       style="font-size:27.4572px;line-height:1.25;font-family:'Trebuchet MS';-inkscape-font-specification:'Trebuchet MS';mix-blend-mode:normal;fill:#000000;stroke-width:0.68643;filter:url(#filter3450)"
       transform="matrix(1.0095658,0,0,1.0095658,-0.13357588,-0.3122198)">
      <path
         d="M 93.905775,67.599548 91.572985,54.983716 87.644758,67.867685 H 86.37417 L 82.201607,54.983716 79.922445,67.599548 h -2.547298 l 3.435187,-19.641014 h 1.911052 l 4.226241,14.331907 4.078715,-14.331907 h 1.897645 l 3.529087,19.641014 z"
         id="path3424"
         style="fill:#000000" />
    </g>
    <g
       aria-label="M"
       id="text24832"
       style="font-size:27.4572px;line-height:1.25;font-family:'Trebuchet MS';-inkscape-font-specification:'Trebuchet MS';fill:#cc1111;stroke-width:0.68643">
      <path
         d="M 93.905775,67.599548 91.572985,54.983716 87.644758,67.867685 H 86.37417 L 82.201607,54.983716 79.922445,67.599548 h -2.547298 l 3.435187,-19.641014 h 1.911052 l 4.226241,14.331907 4.078715,-14.331907 h 1.897645 l 3.529087,19.641014 z"
         id="path1199" />
    </g>
    <path
       id="rect25143"
       style="fill:#d5d5d5;fill-opacity:1;stroke:none;stroke-width:2.52778;stroke-linecap:round"
       d="m 66.569776,39.991108 1.001389,3.737234 37.367825,-10.012677 -1.00139,-3.737234 z" />
    <g
       id="g25719"
       transform="matrix(1.2456057,-0.33375903,0.33375903,1.2456057,-33.53228,-0.44419227)"
       style="fill:#1c1c1c;fill-opacity:1">
      <rect
         style="fill:#1c1c1c;fill-opacity:1;stroke:none;stroke-width:1.32292;stroke-linecap:round"
         id="rect25577"
         width="2.9601967"
         height="1.945685"
         x="68.386314"
         y="50.906162" />
      <rect
         style="fill:#1c1c1c;fill-opacity:1;stroke:none;stroke-width:1.32292;stroke-linecap:round"
         id="rect25685"
         width="2.9601967"
         height="1.945685"
         x="73.185768"
         y="50.906162" />
      <rect
         style="fill:#1c1c1c;fill-opacity:1;stroke:none;stroke-width:1.32292;stroke-linecap:round"
         id="rect25687"
         width="2.9601967"
         height="1.945685"
         x="77.985229"
         y="50.906162" />
      <rect
         style="fill:#1c1c1c;fill-opacity:1;stroke:none;stroke-width:1.32292;stroke-linecap:round"
         id="rect25689"
         width="2.9601967"
         height="1.945685"
         x="82.784683"
         y="50.906162" />
      <rect
         style="fill:#1c1c1c;fill-opacity:1;stroke:none;stroke-width:1.32292;stroke-linecap:round"
         id="rect25691"
         width="2.9601967"
         height="1.945685"
         x="87.584137"
         y="50.906162" />
      <rect
         style="fill:#1c1c1c;fill-opacity:1;stroke:none;stroke-width:1.32292;stroke-linecap:round"
         id="rect25693"
         width="2.9601967"
         height="1.945685"
         x="92.383598"
         y="50.906162" />
    </g>
  </g>
</svg>
