<?xml version="1.0" encoding="UTF-8" standalone="no"?>
<!-- Created with Inkscape (http://www.inkscape.org/) -->

<svg
   width="210mm"
   height="297mm"
   viewBox="0 0 210 297"
   version="1.1"
   id="svg5"
   inkscape:version="1.1 (c68e22c387, 2021-05-23)"
   sodipodi:docname="xi.svg"
   xmlns:inkscape="http://www.inkscape.org/namespaces/inkscape"
   xmlns:sodipodi="http://sodipodi.sourceforge.net/DTD/sodipodi-0.dtd"
   xmlns="http://www.w3.org/2000/svg"
   xmlns:svg="http://www.w3.org/2000/svg"
   xmlns:rdf="http://www.w3.org/1999/02/22-rdf-syntax-ns#"
   xmlns:cc="http://creativecommons.org/ns#"
   xmlns:dc="http://purl.org/dc/elements/1.1/">
  <title
     id="title82">Xi</title>
  <sodipodi:namedview
     id="namedview7"
     pagecolor="#ffffff"
     bordercolor="#666666"
     borderopacity="1.0"
     inkscape:pageshadow="2"
     inkscape:pageopacity="0.0"
     inkscape:pagecheckerboard="0"
     inkscape:document-units="mm"
     showgrid="false"
     inkscape:zoom="0.33540614"
     inkscape:cx="-889.96581"
     inkscape:cy="293.67381"
     inkscape:window-width="1920"
     inkscape:window-height="1017"
     inkscape:window-x="-8"
     inkscape:window-y="-8"
     inkscape:window-maximized="1"
     inkscape:current-layer="layer1" />
  <defs
     id="defs2" />
  <g
     inkscape:label="Layer 1"
     inkscape:groupmode="layer"
     id="layer1">
    <path
       style="fill:#000000;fill-opacity:1;fill-rule:nonzero;stroke:none;stroke-width:0.932675"
       id="path78"
       d="M 0.2381372,8.6895642 C 7.9359816,14.05137 16.891199,17.203143 25.79149,19.223 c 3.15259,0.715463 6.347355,1.189361 9.521039,1.784042 20.958549,2.923168 42.13293,2.143421 63.150239,0.560045 3.484832,-0.357529 7.364232,-0.697298 10.875002,-1.237796 0.94596,-0.145597 1.8873,-0.329963 2.82263,-0.541833 0.46156,-0.104573 0.95983,-0.142801 1.36415,-0.406943 3.89115,-2.541646 8.03488,-4.753328 11.47287,-7.978008 0.49683,-0.46599 -1.01764,-0.900777 -1.52647,-1.35115 C 117.41442,9.1021297 111.26222,9.0763362 105.15567,9.2225701 98.913443,9.1599521 92.804618,10.402889 86.738098,11.850953 80.20398,13.188352 73.962483,15.590041 67.807356,18.262244 60.679524,21.363671 53.596539,24.590277 46.777858,28.436318 40.44341,32.43512 33.034994,35.777209 28.057446,41.991546 c -2.479712,3.095865 -4.108182,6.583071 -5.739518,10.248489 -2.177992,6.268289 -4.147159,13.040308 -3.809989,19.8428 0.06685,1.348587 0.317408,2.6789 0.476117,4.018363 1.371313,6.541103 4.649688,12.141257 9.360248,16.444434 0.960476,0.877406 2.009206,1.633473 3.013799,2.450192 7.305994,5.108806 15.585646,8.206426 23.794631,11.106616 9.822089,3.0947 20.079491,3.86395 30.236846,4.51252 6.268494,0.26631 12.54884,0.0416 18.69411,-1.41706 2.95557,-0.70157 3.90073,-1.10116 6.67086,-2.0635 1.83005,-0.77923 3.79801,-1.35894 5.50088,-2.46792 1.05542,-0.68729 14.15891,-4.805254 11.56841,-9.008533 -0.22025,-0.357204 -0.58825,-0.574842 -0.88239,-0.862285 -2.33809,-0.821805 -4.88046,-0.743679 -7.31266,-0.653243 -4.16956,0.692569 -8.34132,1.41827 -12.48989,2.254052 -4.8693,0.92351 -9.598105,2.518022 -14.356991,3.938749 -5.473859,1.61894 -10.798336,3.71902 -16.01236,6.13757 -10.342037,4.87479 -20.021995,11.25324 -29.573817,17.72535 -6.159865,4.16151 -12.247963,8.44072 -18.183367,12.97237 -2.905329,2.2774 -5.83891,4.64017 -7.919756,7.8664 -1.118437,1.73407 -1.625302,2.96509 -2.509428,4.83843 -1.799629,4.03693 -2.488858,8.37934 -2.082447,12.84023 0.09085,0.99702 0.270658,1.98206 0.405981,2.97311 0.984031,6.10128 3.584165,11.54219 6.750151,16.60808 2.254149,3.08197 4.756582,5.95492 7.667399,8.31038 1.788409,1.4472 2.797591,2.06597 4.695802,3.34537 5.259376,3.15679 10.855386,5.5723 16.535932,7.65872 7.470431,2.45561 14.933544,4.93115 22.374864,7.49086 7.524232,2.52377 15.155975,4.68267 22.559541,7.61156 2.822406,1.35822 5.897586,2.72034 7.998226,5.30227 0.87729,1.07836 0.97194,1.51239 1.51897,2.7671 0.92573,3.52512 -0.57717,6.71175 -2.16408,9.70131 -2.33891,4.13587 -5.522329,7.48526 -8.939572,10.54784 -0.800439,0.58924 -1.590415,1.19575 -2.401335,1.76775 -0.888935,0.62706 -3.613527,2.40748 -2.697368,1.82874 2.693201,-1.70122 5.462445,-3.27802 8.02935,-5.19683 1.018515,-0.76134 -2.221494,1.18071 -3.358952,1.70572 -3.086094,1.42447 -4.365688,1.78406 -7.573218,2.90666 -5.146192,1.62102 -10.465148,2.39626 -15.747122,3.27802 0,0 -10.265948,8.39188 -10.265948,8.39188 v 0 c 5.323413,-0.93888 10.690445,-1.68143 15.917734,-3.16429 3.076422,-1.01122 4.637832,-1.44727 7.612913,-2.72533 8.079154,-3.47071 15.507618,-8.64085 22.562528,-14.11024 3.42975,-3.22697 6.62057,-6.74496 8.86329,-11.08415 1.65977,-3.48055 2.94447,-7.06752 1.66433,-10.96992 -0.66894,-1.42886 -0.80166,-1.93018 -1.81674,-3.16488 -2.24639,-2.73246 -5.48605,-4.19397 -8.4867,-5.65812 -7.47579,-2.90693 -15.203187,-4.93471 -22.776373,-7.51424 -7.375352,-2.58205 -14.750121,-5.16174 -22.159074,-7.62736 -5.605386,-2.01684 -11.119491,-4.37688 -16.330006,-7.41901 -4.684972,-3.11638 -8.700989,-6.3347 -12.060996,-11.15624 -3.052474,-4.88962 -5.618337,-10.11281 -6.455391,-16.03519 -0.105324,-0.95367 -0.25444,-1.90282 -0.31599,-2.86098 -0.274136,-4.26693 0.604027,-8.37318 2.38385,-12.17236 0.976054,-1.90404 1.365364,-2.83996 2.614424,-4.56418 2.184802,-3.01601 5.116234,-5.23887 7.93842,-7.47805 5.910193,-4.49479 11.9788,-8.72985 18.11103,-12.85627 5.519269,-3.69459 4.823258,-3.17471 -4.634229,2.71305 -1.042052,0.64876 2.080823,-1.30412 3.135009,-1.92918 2.223968,-1.31857 3.74944,-2.13558 6.041056,-3.29242 0.965664,-0.48745 1.942109,-0.94918 2.913149,-1.42376 5.148879,-2.4667 10.415115,-4.58999 15.834953,-6.24734 4.741965,-1.36905 9.426704,-3.02167 14.25791,-3.98552 4.062008,-0.89502 8.184618,-1.40611 12.247038,-2.30514 2.26374,-0.1769 4.53302,-0.0993 6.79339,0.12523 0.29797,-0.32146 0.29694,-0.15538 0.0545,-0.49391 3.58896,-2.23587 7.17791,-4.471728 10.76688,-6.707598 0.43039,-0.265569 -0.83054,0.587962 -1.26671,0.842171 -1.70346,0.992859 -2.45748,1.237902 -4.3418,2.046245 -3.57177,1.389252 -7.14743,2.636822 -10.90322,3.319602 -4.78258,0.86944 -9.63893,0.89412 -14.471896,0.83033 C 85.52426,102.06631 75.38438,101.30313 65.639072,98.3366 57.547808,95.537534 49.424844,92.472225 42.201769,87.515497 41.228158,86.741144 40.212234,86.026232 39.280957,85.192461 34.764181,81.148453 31.613693,75.839823 30.360892,69.602506 30.232655,68.32479 30.015519,67.054038 29.976181,65.769455 29.77623,59.23962 31.726417,52.453211 33.985592,46.496288 c 0.592473,-1.233461 1.127797,-2.501526 1.777409,-3.700398 1.750484,-3.230506 3.927665,-6.136581 6.580809,-8.53712 0.816545,-0.738834 3.51455,-2.568529 2.559167,-2.064407 -2.805486,1.480324 -5.428251,3.340303 -8.142369,5.010478 6.747179,-3.991965 13.840747,-7.195216 20.961636,-10.307101 6.084036,-2.658979 12.220718,-5.190432 18.694727,-6.500373 6.040188,-1.478008 12.110946,-2.919904 18.339845,-2.90115 5.905714,-0.207022 11.811884,-0.127727 17.681484,0.699054 2.6442,-4.642583 -0.005,-0.217758 11.50553,-7.703299 0.46205,-0.300534 -0.94491,0.5772 -1.4569,0.757789 -0.98436,0.347244 -1.99669,0.600027 -3.01176,0.818345 -3.76597,0.809908 -7.57615,1.233228 -11.38175,1.750743 -7.15191,0.709388 -11.225629,1.194879 -18.585755,1.553044 C 74.653108,16.094815 59.702588,15.806821 44.950879,13.661131 41.864428,13.040719 38.755858,12.538975 35.691534,11.799877 27.995576,9.9436733 20.087591,7.1822701 13.38994,2.5297459 12.730545,2.0716838 12.138416,1.5078798 11.512651,0.99694853 c 0,0 -11.27445327,7.69251737 -11.27445327,7.69251737 z" />
  </g>
  <metadata
     id="metadata80">
    <rdf:RDF>
      <cc:Work
         rdf:about="">
        <dc:title>Xi</dc:title>
      </cc:Work>
    </rdf:RDF>
  </metadata>
</svg>
